<svg width="400" height="400" viewBox="0 0 400 400" fill="none" xmlns="http://www.w3.org/2000/svg">
  <rect width="400" height="400" fill="#F8F5F0"/>
  <path d="M80 150 Q200 120 320 150 Q200 180 80 150" fill="#8B5A3C" stroke="#654321" stroke-width="2"/>
  <path d="M90 170 Q200 140 310 170 Q200 200 90 170" fill="#A0845C" stroke="#8B5A3C" stroke-width="2"/>
  <path d="M100 190 Q200 160 300 190 Q200 220 100 190" fill="#D4AF37" stroke="#8B5A3C" stroke-width="2"/>
  <path d="M110 210 Q200 180 290 210 Q200 240 110 210" fill="#8B5A3C" stroke="#654321" stroke-width="2"/>
  <path d="M120 230 Q200 200 280 230 Q200 260 120 230" fill="#A0845C" stroke="#8B5A3C" stroke-width="2"/>
  <rect x="80" y="250" width="10" height="30" fill="#8B5A3C"/>
  <rect x="310" y="250" width="10" height="30" fill="#8B5A3C"/>
  <text x="200" y="320" text-anchor="middle" font-family="serif" font-size="18" fill="#8B5A3C">Wool Scarf</text>
  <text x="200" y="340" text-anchor="middle" font-family="serif" font-size="14" fill="#A0845C">Handwoven</text>
</svg>
