<svg width="1920" height="1080" viewBox="0 0 1920 1080" fill="none" xmlns="http://www.w3.org/2000/svg">
  <rect width="1920" height="1080" fill="url(#heroGradient)"/>
  <defs>
    <linearGradient id="heroGradient" x1="0%" y1="0%" x2="100%" y2="100%">
      <stop offset="0%" style="stop-color:#8B5A3C;stop-opacity:0.3" />
      <stop offset="50%" style="stop-color:#A0845C;stop-opacity:0.2" />
      <stop offset="100%" style="stop-color:#D4AF37;stop-opacity:0.3" />
    </linearGradient>
    <pattern id="woodTexture" patternUnits="userSpaceOnUse" width="100" height="100">
      <rect width="100" height="100" fill="#F8F5F0"/>
      <path d="M0 20 Q50 15 100 20" stroke="#E5D5C8" stroke-width="1" fill="none"/>
      <path d="M0 40 Q50 35 100 40" stroke="#E5D5C8" stroke-width="1" fill="none"/>
      <path d="M0 60 Q50 55 100 60" stroke="#E5D5C8" stroke-width="1" fill="none"/>
      <path d="M0 80 Q50 75 100 80" stroke="#E5D5C8" stroke-width="1" fill="none"/>
    </pattern>
  </defs>
  
  <!-- Background texture -->
  <rect width="1920" height="1080" fill="url(#woodTexture)" opacity="0.3"/>
  
  <!-- Workshop elements -->
  <rect x="100" y="400" width="200" height="150" fill="#8B5A3C" opacity="0.4"/>
  <rect x="105" y="405" width="190" height="140" fill="none" stroke="#654321" stroke-width="2" opacity="0.5"/>
  
  <circle cx="500" cy="300" r="80" fill="none" stroke="#8B5A3C" stroke-width="4" opacity="0.3"/>
  <circle cx="500" cy="300" r="60" fill="none" stroke="#A0845C" stroke-width="2" opacity="0.4"/>
  
  <rect x="800" y="500" width="150" height="100" rx="10" fill="#A0845C" opacity="0.3"/>
  <path d="M820 520 Q875 510 930 520" stroke="#8B5A3C" stroke-width="3" fill="none" opacity="0.4"/>
  
  <ellipse cx="1200" cy="400" rx="100" ry="150" fill="none" stroke="#8B5A3C" stroke-width="3" opacity="0.3"/>
  <ellipse cx="1200" cy="380" rx="80" ry="20" fill="none" stroke="#A0845C" stroke-width="2" opacity="0.4"/>
  
  <!-- Decorative elements -->
  <circle cx="1500" cy="200" r="40" fill="#D4AF37" opacity="0.2"/>
  <circle cx="300" cy="800" r="60" fill="#8B5A3C" opacity="0.2"/>
  <circle cx="1600" cy="900" r="50" fill="#A0845C" opacity="0.2"/>
  
  <!-- Light rays effect -->
  <path d="M0 0 L400 0 L300 200 L0 100 Z" fill="url(#lightRay)" opacity="0.1"/>
  <defs>
    <linearGradient id="lightRay" x1="0%" y1="0%" x2="100%" y2="100%">
      <stop offset="0%" style="stop-color:#FFFFFF;stop-opacity:0.3" />
      <stop offset="100%" style="stop-color:#FFFFFF;stop-opacity:0.0" />
    </linearGradient>
  </defs>
</svg>
